<mxfile host="Electron" modified="2023-07-12T09:17:42.530Z" agent="Mozilla/5.0 (Windows NT 10.0; Win64; x64) AppleWebKit/537.36 (KHTML, like Gecko) draw.io/21.5.0 Chrome/112.0.5615.204 Electron/24.5.1 Safari/537.36" etag="pqpm85UgpJ5QyH3AQU1Z" version="21.5.0" type="device">
  <diagram name="第 1 页" id="_QRMaysICRfe4HxziZYZ">
    <mxGraphModel dx="810" dy="469" grid="1" gridSize="10" guides="1" tooltips="1" connect="1" arrows="1" fold="1" page="1" pageScale="1" pageWidth="827" pageHeight="1169" math="0" shadow="0">
      <root>
        <mxCell id="0" />
        <mxCell id="1" parent="0" />
        <mxCell id="SNznNEh62GantUWWiIc2-5" value="" style="edgeStyle=orthogonalEdgeStyle;rounded=0;orthogonalLoop=1;jettySize=auto;html=1;strokeColor=#FF6392;fontColor=default;fillColor=#FFE45E;labelBackgroundColor=none;" edge="1" parent="1" source="SNznNEh62GantUWWiIc2-3" target="SNznNEh62GantUWWiIc2-4">
          <mxGeometry relative="1" as="geometry" />
        </mxCell>
        <mxCell id="SNznNEh62GantUWWiIc2-21" style="edgeStyle=orthogonalEdgeStyle;rounded=0;orthogonalLoop=1;jettySize=auto;html=1;strokeColor=#FF6392;fontColor=#5AA9E6;fillColor=#FFE45E;" edge="1" parent="1" source="SNznNEh62GantUWWiIc2-3" target="SNznNEh62GantUWWiIc2-15">
          <mxGeometry relative="1" as="geometry">
            <Array as="points">
              <mxPoint x="100" y="330" />
              <mxPoint x="500" y="330" />
            </Array>
          </mxGeometry>
        </mxCell>
        <mxCell id="SNznNEh62GantUWWiIc2-35" value="" style="edgeStyle=orthogonalEdgeStyle;rounded=0;orthogonalLoop=1;jettySize=auto;html=1;strokeColor=#FF6392;fontColor=#5AA9E6;fillColor=#FFE45E;" edge="1" parent="1" source="SNznNEh62GantUWWiIc2-3" target="SNznNEh62GantUWWiIc2-34">
          <mxGeometry relative="1" as="geometry" />
        </mxCell>
        <mxCell id="SNznNEh62GantUWWiIc2-3" value="we" style="rounded=0;whiteSpace=wrap;html=1;strokeColor=#FF6392;fontColor=#5AA9E6;fillColor=#FFE45E;labelBackgroundColor=none;" vertex="1" parent="1">
          <mxGeometry x="70" y="190" width="60" height="60" as="geometry" />
        </mxCell>
        <mxCell id="SNznNEh62GantUWWiIc2-7" value="" style="edgeStyle=orthogonalEdgeStyle;rounded=0;orthogonalLoop=1;jettySize=auto;html=1;strokeColor=#FF6392;fontColor=default;fillColor=#FFE45E;labelBackgroundColor=none;" edge="1" parent="1" source="SNznNEh62GantUWWiIc2-4" target="SNznNEh62GantUWWiIc2-6">
          <mxGeometry relative="1" as="geometry" />
        </mxCell>
        <mxCell id="SNznNEh62GantUWWiIc2-22" style="edgeStyle=orthogonalEdgeStyle;rounded=0;orthogonalLoop=1;jettySize=auto;html=1;strokeColor=#FF6392;fontColor=#5AA9E6;fillColor=#FFE45E;" edge="1" parent="1" source="SNznNEh62GantUWWiIc2-4" target="SNznNEh62GantUWWiIc2-14">
          <mxGeometry relative="1" as="geometry">
            <Array as="points">
              <mxPoint x="210" y="310" />
              <mxPoint x="410" y="310" />
            </Array>
          </mxGeometry>
        </mxCell>
        <mxCell id="SNznNEh62GantUWWiIc2-31" value="" style="edgeStyle=orthogonalEdgeStyle;rounded=0;orthogonalLoop=1;jettySize=auto;html=1;strokeColor=#FF6392;fontColor=#5AA9E6;fillColor=#FFE45E;" edge="1" parent="1" source="SNznNEh62GantUWWiIc2-4" target="SNznNEh62GantUWWiIc2-30">
          <mxGeometry relative="1" as="geometry" />
        </mxCell>
        <mxCell id="SNznNEh62GantUWWiIc2-4" value="can&amp;nbsp;&amp;nbsp;" style="rounded=0;whiteSpace=wrap;html=1;strokeColor=#FF6392;fontColor=#5AA9E6;fillColor=#FFE45E;labelBackgroundColor=none;" vertex="1" parent="1">
          <mxGeometry x="180" y="190" width="60" height="60" as="geometry" />
        </mxCell>
        <mxCell id="SNznNEh62GantUWWiIc2-9" value="" style="edgeStyle=orthogonalEdgeStyle;rounded=0;orthogonalLoop=1;jettySize=auto;html=1;strokeColor=#FF6392;fontColor=default;fillColor=#FFE45E;labelBackgroundColor=none;" edge="1" parent="1" source="SNznNEh62GantUWWiIc2-6" target="SNznNEh62GantUWWiIc2-8">
          <mxGeometry relative="1" as="geometry" />
        </mxCell>
        <mxCell id="SNznNEh62GantUWWiIc2-23" style="edgeStyle=orthogonalEdgeStyle;rounded=0;orthogonalLoop=1;jettySize=auto;html=1;strokeColor=#FF6392;fontColor=#5AA9E6;fillColor=#FFE45E;" edge="1" parent="1" source="SNznNEh62GantUWWiIc2-6" target="SNznNEh62GantUWWiIc2-16">
          <mxGeometry relative="1" as="geometry">
            <Array as="points">
              <mxPoint x="370" y="280" />
              <mxPoint x="640" y="280" />
            </Array>
          </mxGeometry>
        </mxCell>
        <mxCell id="SNznNEh62GantUWWiIc2-29" value="" style="edgeStyle=orthogonalEdgeStyle;rounded=0;orthogonalLoop=1;jettySize=auto;html=1;strokeColor=#FF6392;fontColor=#5AA9E6;fillColor=#FFE45E;" edge="1" parent="1" source="SNznNEh62GantUWWiIc2-6" target="SNznNEh62GantUWWiIc2-27">
          <mxGeometry relative="1" as="geometry" />
        </mxCell>
        <mxCell id="SNznNEh62GantUWWiIc2-6" value="hold a party" style="rounded=0;whiteSpace=wrap;html=1;strokeColor=#FF6392;fontColor=#5AA9E6;fillColor=#FFE45E;labelBackgroundColor=none;" vertex="1" parent="1">
          <mxGeometry x="290" y="190" width="160" height="60" as="geometry" />
        </mxCell>
        <mxCell id="SNznNEh62GantUWWiIc2-24" style="edgeStyle=orthogonalEdgeStyle;rounded=0;orthogonalLoop=1;jettySize=auto;html=1;strokeColor=#FF6392;fontColor=#5AA9E6;fillColor=#FFE45E;" edge="1" parent="1" source="SNznNEh62GantUWWiIc2-8" target="SNznNEh62GantUWWiIc2-13">
          <mxGeometry relative="1" as="geometry">
            <Array as="points">
              <mxPoint x="600" y="260" />
              <mxPoint x="240" y="260" />
            </Array>
          </mxGeometry>
        </mxCell>
        <mxCell id="SNznNEh62GantUWWiIc2-26" value="" style="edgeStyle=orthogonalEdgeStyle;rounded=0;orthogonalLoop=1;jettySize=auto;html=1;strokeColor=#FF6392;fontColor=#5AA9E6;fillColor=#FFE45E;" edge="1" parent="1" source="SNznNEh62GantUWWiIc2-8" target="SNznNEh62GantUWWiIc2-25">
          <mxGeometry relative="1" as="geometry" />
        </mxCell>
        <mxCell id="SNznNEh62GantUWWiIc2-8" value="&lt;span style=&quot;box-sizing: border-box;&quot;&gt;in the weekend&lt;/span&gt;" style="rounded=0;whiteSpace=wrap;html=1;strokeColor=#FF6392;fontColor=#5AA9E6;fillColor=#FFE45E;labelBackgroundColor=none;align=center;" vertex="1" parent="1">
          <mxGeometry x="500" y="190" width="200" height="60" as="geometry" />
        </mxCell>
        <mxCell id="SNznNEh62GantUWWiIc2-17" value="" style="edgeStyle=orthogonalEdgeStyle;rounded=0;orthogonalLoop=1;jettySize=auto;html=1;strokeColor=#FF6392;fontColor=#5AA9E6;fillColor=#FFE45E;" edge="1" parent="1" source="SNznNEh62GantUWWiIc2-12" target="SNznNEh62GantUWWiIc2-13">
          <mxGeometry relative="1" as="geometry" />
        </mxCell>
        <mxCell id="SNznNEh62GantUWWiIc2-12" value="Only" style="shape=hexagon;perimeter=hexagonPerimeter2;whiteSpace=wrap;html=1;fixedSize=1;strokeColor=#FF6392;fontColor=#5AA9E6;fillColor=#FFE45E;size=20;" vertex="1" parent="1">
          <mxGeometry x="50" y="360" width="60" height="60" as="geometry" />
        </mxCell>
        <mxCell id="SNznNEh62GantUWWiIc2-18" value="" style="edgeStyle=orthogonalEdgeStyle;rounded=0;orthogonalLoop=1;jettySize=auto;html=1;strokeColor=#FF6392;fontColor=#5AA9E6;fillColor=#FFE45E;" edge="1" parent="1" source="SNznNEh62GantUWWiIc2-13" target="SNznNEh62GantUWWiIc2-14">
          <mxGeometry relative="1" as="geometry" />
        </mxCell>
        <mxCell id="SNznNEh62GantUWWiIc2-13" value="&lt;span style=&quot;box-sizing: border-box;&quot;&gt;in the weekend&lt;/span&gt;" style="rounded=0;whiteSpace=wrap;html=1;strokeColor=#FF6392;fontColor=#5AA9E6;fillColor=#FFE45E;labelBackgroundColor=none;align=center;" vertex="1" parent="1">
          <mxGeometry x="140" y="360" width="200" height="60" as="geometry" />
        </mxCell>
        <mxCell id="SNznNEh62GantUWWiIc2-19" value="" style="edgeStyle=orthogonalEdgeStyle;rounded=0;orthogonalLoop=1;jettySize=auto;html=1;strokeColor=#FF6392;fontColor=#5AA9E6;fillColor=#FFE45E;" edge="1" parent="1" source="SNznNEh62GantUWWiIc2-14" target="SNznNEh62GantUWWiIc2-15">
          <mxGeometry relative="1" as="geometry" />
        </mxCell>
        <mxCell id="SNznNEh62GantUWWiIc2-37" value="" style="edgeStyle=orthogonalEdgeStyle;rounded=0;orthogonalLoop=1;jettySize=auto;html=1;strokeColor=#FF6392;fontColor=#5AA9E6;fillColor=#FFE45E;" edge="1" parent="1" source="SNznNEh62GantUWWiIc2-14" target="SNznNEh62GantUWWiIc2-36">
          <mxGeometry relative="1" as="geometry" />
        </mxCell>
        <mxCell id="SNznNEh62GantUWWiIc2-14" value="can&amp;nbsp;&amp;nbsp;" style="rounded=0;whiteSpace=wrap;html=1;strokeColor=#FF6392;fontColor=#5AA9E6;fillColor=#FFE45E;labelBackgroundColor=none;" vertex="1" parent="1">
          <mxGeometry x="380" y="360" width="60" height="60" as="geometry" />
        </mxCell>
        <mxCell id="SNznNEh62GantUWWiIc2-20" value="" style="edgeStyle=orthogonalEdgeStyle;rounded=0;orthogonalLoop=1;jettySize=auto;html=1;strokeColor=#FF6392;fontColor=#5AA9E6;fillColor=#FFE45E;" edge="1" parent="1" source="SNznNEh62GantUWWiIc2-15" target="SNznNEh62GantUWWiIc2-16">
          <mxGeometry relative="1" as="geometry" />
        </mxCell>
        <mxCell id="SNznNEh62GantUWWiIc2-15" value="we" style="rounded=0;whiteSpace=wrap;html=1;strokeColor=#FF6392;fontColor=#5AA9E6;fillColor=#FFE45E;labelBackgroundColor=none;" vertex="1" parent="1">
          <mxGeometry x="470" y="360" width="60" height="60" as="geometry" />
        </mxCell>
        <mxCell id="SNznNEh62GantUWWiIc2-16" value="hold a party" style="rounded=0;whiteSpace=wrap;html=1;strokeColor=#FF6392;fontColor=#5AA9E6;fillColor=#FFE45E;labelBackgroundColor=none;" vertex="1" parent="1">
          <mxGeometry x="560" y="360" width="160" height="60" as="geometry" />
        </mxCell>
        <mxCell id="SNznNEh62GantUWWiIc2-25" value="状语/状语从句" style="ellipse;whiteSpace=wrap;html=1;fillColor=#FFE45E;strokeColor=#FF6392;fontColor=#5AA9E6;rounded=0;labelBackgroundColor=none;" vertex="1" parent="1">
          <mxGeometry x="560" y="110" width="80" height="50" as="geometry" />
        </mxCell>
        <mxCell id="SNznNEh62GantUWWiIc2-27" value="谓语" style="ellipse;whiteSpace=wrap;html=1;fillColor=#FFE45E;strokeColor=#FF6392;fontColor=#5AA9E6;rounded=0;labelBackgroundColor=none;" vertex="1" parent="1">
          <mxGeometry x="330" y="110" width="80" height="50" as="geometry" />
        </mxCell>
        <mxCell id="SNznNEh62GantUWWiIc2-30" value="情态动词" style="ellipse;whiteSpace=wrap;html=1;fillColor=#FFE45E;strokeColor=#FF6392;fontColor=#5AA9E6;rounded=0;labelBackgroundColor=none;" vertex="1" parent="1">
          <mxGeometry x="170" y="110" width="80" height="50" as="geometry" />
        </mxCell>
        <mxCell id="SNznNEh62GantUWWiIc2-34" value="主语" style="ellipse;whiteSpace=wrap;html=1;fillColor=#FFE45E;strokeColor=#FF6392;fontColor=#5AA9E6;rounded=0;labelBackgroundColor=none;" vertex="1" parent="1">
          <mxGeometry x="60" y="110" width="80" height="50" as="geometry" />
        </mxCell>
        <mxCell id="SNznNEh62GantUWWiIc2-36" value="有情用情，有be用be，无情无be，do来替" style="shape=document;whiteSpace=wrap;html=1;boundedLbl=1;fillColor=#FFE45E;strokeColor=#FF6392;fontColor=#5AA9E6;rounded=0;labelBackgroundColor=none;" vertex="1" parent="1">
          <mxGeometry x="350" y="450" width="120" height="80" as="geometry" />
        </mxCell>
      </root>
    </mxGraphModel>
  </diagram>
</mxfile>
